{"title":"Dropping Evil (2012)","uid":8096933,"size":1643036518,"categoryP":"video","categoryS":"movies","magnet":"?xt=urn:btih:362966f58ff1cdc448d1643a2246ee0cf8aa7089&amp;dn=Dropping+Evil+%282012%29&amp;tr=udp%3A%2F%2Ftracker.openbittorrent.com%3A80&amp;tr=udp%3A%2F%2Fopen.demonii.com%3A1337&amp;tr=udp%3A%2F%2Ftracker.coppersurfer.tk%3A6969&amp;tr=udp%3A%2F%2Fexodus.desync.com%3A6969","seeders":0,"leechers":2,"uploader":"RadioResearch","files":3,"time":1359862495,"description":"*******************************************************************************\n                                 Dropping Evil\n*******************************************************************************\n\n-------------------------------------------------------------------------------\n                              General Information\n-------------------------------------------------------------------------------\nType.................: Movie\n\n\n\nVideo Format.........: AVI\nVideo Bitrate........: 2925\nResolution...........: 720 x 404\nColor................: 8 bit\nFPS..................: 29.97\nSource...............: DVD 16x9\nOriginal Format......: NTSC\nGenre................: Horror\nIMDb Rating..........: 6.8\nMovie Information....: http://www.imdb.com/title/tt1220224\n\n-------------------------------------------------------------------------------\n                               Post Information\n-------------------------------------------------------------------------------\nPosted by............: RadioResearch\nPosted on............: 2/2/2013\n\n-------------------------------------------------------------------------------\n                                 Release Notes\n-------------------------------------------------------------------------------\nAfter his friends slip him LSD on a camping trip, ultra-nerdy Nancy hallucinates \nthat they are evil beings and begins to systematically hunt them down. \nMeanwhile, a mysterious corporation monitors the entire event for their own \nhidden purpose.\n\nWith Armin Shimerman and a cameo by Fred Williamson!\n\nEnjoy!\n\n\nRadioResearch\n\nGeneral\nComplete name                            : G:AVIDropping Evil (2012)Dropping \nEvil_Title1.avi\nFormat                                   : AVI\nFormat/Info                              : Audio Video Interleave\nFormat profile                           : OpenDML\nFile size                                : 1.53 GiB\nDuration                                 : 1h 14mn\nOverall bit rate                         : 2 925 Kbps\nMovie name                               : Dropping_Evil\nGenre                                    : Horror\nWriting application                      : MEncoder 5.0\nWriting library                          : [= DigiArty videodll! =]\n\nVideo\nID                                       : 0\nFormat                                   : MPEG-4 Visual\nFormat profile                           : Simple@L1\nFormat settings, BVOP                    : No\nFormat settings, QPel                    : No\nFormat settings, GMC                     : No warppoints\nFormat settings, Matrix                  : Default (H.263)\nCodec ID                                 : DX50\nCodec ID/Hint                            : DivX 5\nDuration                                 : 1h 14mn\nBit rate                                 : 2 727 Kbps\nWidth                                    : 720 pixels\nHeight                                   : 404 pixels\nDisplay aspect ratio                     : 16:9\nFrame rate                               : 29.970 fps\nColor space                              : YUV\nChroma subsampling                       : 4:2:0\nBit depth                                : 8 bits\nScan type                                : Progressive\nCompression mode                         : Lossy\nBits/(Pixel*Frame)                       : 0.313\nStream size                              : 1.43 GiB (93%)\nWriting library                          : Lavc54.71.100\n\nAudio\nID                                       : 1\nFormat                                   : AC-3\nFormat/Info                              : Audio Coding 3\nMode extension                           : CM (complete main)\nFormat settings, Endianness              : Big\nCodec ID                                 : 2000\nDuration                                 : 1h 14mn\nBit rate mode                            : Constant\nBit rate                                 : 192 Kbps\nChannel(s)                               : 2 channels\nChannel positions                        : Front: L R\nSampling rate                            : 48.0 KHz\nBit depth                                : 16 bits\nCompression mode                         : Lossy\nStream size                              : 103 MiB (7%)\nAlignment                                : Split accross interleaves\nInterleave, duration                     : 500 ms (14.98 video frames)\nInterleave, preload duration             : 500 ms\n\n\n\n\n-------------------------------------------------------------------------------\nGenerated with Cool NFO Creator - http://fly.to/coolbeans\n-------------------------------------------------------------------------------\n","torrent":{"xt":"urn:btih:362966f58ff1cdc448d1643a2246ee0cf8aa7089","amp;dn":"Dropping+Evil+%282012%29","amp;tr":["udp%3A%2F%2Ftracker.openbittorrent.com%3A80","udp%3A%2F%2Fopen.demonii.com%3A1337","udp%3A%2F%2Ftracker.coppersurfer.tk%3A6969","udp%3A%2F%2Fexodus.desync.com%3A6969"],"infoHash":"362966f58ff1cdc448d1643a2246ee0cf8aa7089","infoHashBuffer":{"type":"Buffer","data":[54,41,102,245,143,241,205,196,72,209,100,58,34,70,238,12,248,170,112,137]},"announce":[],"urlList":[]}}